<svg width="20" height="21" viewBox="0 0 20 21" fill="none" xmlns="http://www.w3.org/2000/svg">
<path d="M19 7.5L19 1.5M19 1.5H13M19 1.5L11 9.5M8 3.5H5.8C4.11984 3.5 3.27976 3.5 2.63803 3.82698C2.07354 4.1146 1.6146 4.57354 1.32698 5.13803C1 5.77976 1 6.61984 1 8.3V14.7C1 16.3802 1 17.2202 1.32698 17.862C1.6146 18.4265 2.07354 18.8854 2.63803 19.173C3.27976 19.5 4.11984 19.5 5.8 19.5H12.2C13.8802 19.5 14.7202 19.5 15.362 19.173C15.9265 18.8854 16.3854 18.4265 16.673 17.862C17 17.2202 17 16.3802 17 14.7V12.5" stroke="black" stroke-width="2" stroke-linecap="round" stroke-linejoin="round"/>
</svg>
